<svg xmlns="http://www.w3.org/2000/svg" viewBox="0 0 1151.4 460.7"><defs><style>.a,.c{fill:#296273;}.a,.b{stroke:#296273;}.a,.b,.d{stroke-miterlimit:10;}.a{stroke-width:6px;}.b,.d{fill:none;stroke-width:4px;}.d{stroke:#000;}.e{font-size:52.22px;}.e,.h{font-family:AdventPro-SemiBold, Advent Pro;font-weight:600;}.f{letter-spacing:-0.09em;}.g{letter-spacing:-0.05em;}.h{font-size:52.25px;}.i{letter-spacing:-0.1em;}.j{letter-spacing:0em;}.k{letter-spacing:0em;}.l{letter-spacing:-0.02em;}.m{letter-spacing:0em;}.n{letter-spacing:-0.1em;}.o{letter-spacing:0em;}.p{letter-spacing:0em;}.q{letter-spacing:-0.04em;}.r{letter-spacing:-0.02em;}.s{letter-spacing:-0.03em;}.t{letter-spacing:-0.03em;}.u{letter-spacing:-0.06em;}.v{letter-spacing:0em;}.w{letter-spacing:-0.03em;}</style></defs><title>skilltree</title><circle class="a" cx="575.6" cy="87.1" r="24"/><circle class="b" cx="575.7" cy="240.1" r="13"/><rect class="c" x="769.5" y="282.5" width="3" height="114" transform="translate(1095.2 -447.4) rotate(90)"/><rect class="c" x="907.5" y="282.5" width="3" height="114" transform="translate(1233.2 -585.4) rotate(90)"/><rect class="c" x="891" y="236" width="3" height="114" transform="translate(1196.6 1160.6) rotate(-128)"/><rect class="c" x="891" y="328" width="3" height="114" transform="translate(1730.5 -96.4) rotate(128)"/><circle class="d" cx="823.7" cy="324.1" r="13"/><rect class="c" x="573.7" y="114.1" width="3" height="114"/><rect class="c" x="410.5" y="283.5" width="3" height="114" transform="translate(737.2 -87.4) rotate(90)"/><text class="e" transform="translate(490.1 44.4)">Skill <tspan class="f" x="107.3" y="0">T</tspan><tspan class="g" x="123.7" y="0">r</tspan><tspan x="140.3" y="0">ee</tspan></text><rect class="c" x="534" y="240" width="3" height="114" transform="translate(424.1 -323.6) rotate(52)"/><rect class="c" x="289" y="237" width="3" height="114" transform="translate(-135.3 325.7) rotate(-52)"/><rect class="c" x="289" y="329" width="3" height="114" transform="translate(400.1 -96.5) rotate(52)"/><rect class="c" x="645" y="240" width="3" height="114" transform="translate(-1.1 607.2) rotate(-52)"/><circle class="d" cx="685.7" cy="324.1" r="13"/><circle class="d" cx="465.7" cy="324.1" r="13"/><circle class="d" cx="328.7" cy="325.1" r="13"/><text class="h" transform="translate(396.8 385.8)">G<tspan class="i" x="28.1" y="0">r</tspan><tspan class="j" x="41.8" y="0">a</tspan><tspan class="k" x="65.5" y="0">ph</tspan><tspan class="l" x="117" y="0">i</tspan><tspan class="m" x="129.4" y="0">c </tspan><tspan x="0" y="62.7">Design</tspan></text><text class="e" transform="translate(0 250.4)">Photoshop</text><text class="e" transform="translate(21.3 422.2)">Illust<tspan class="n" x="101" y="0">r</tspan><tspan class="o" x="114.8" y="0">a</tspan><tspan class="p" x="138.9" y="0">tor</tspan></text><text class="h" transform="translate(638 386.3)"><tspan class="q">W</tspan><tspan class="r" x="40.4" y="0">e</tspan><tspan x="61.8" y="0">b</tspan><tspan x="0" y="62.7">Design</tspan></text><text class="h" transform="translate(930 244.4)">HTML</text><text class="h" transform="translate(930.3 427.1)">CSS</text><text class="h" transform="translate(962 342.7)"><tspan class="s">J</tspan><tspan class="t" x="9.8" y="0">a</tspan><tspan class="u" x="32.2" y="0">v</tspan><tspan class="v" x="52.5" y="0">asc</tspan><tspan class="w" x="119" y="0">r</tspan><tspan x="136.5" y="0">ipt</tspan></text></svg>